<svg viewBox="0 0 64 64" fill="none" xmlns="http://www.w3.org/2000/svg"
aria-labelledby="title" aria-describedby="desc" role="img" xmlns:xlink="http://www.w3.org/1999/xlink"
width="64" height="64">
  <path d="M26.108 26.848c-1.855 0-3.32 1.6-3.32 3.552s1.497 3.552 3.32 3.552c1.856 0 3.32-1.6 3.32-3.552.033-1.952-1.464-3.552-3.32-3.552zm11.882 0c-1.855 0-3.32 1.6-3.32 3.552s1.497 3.552 3.32 3.552c1.856 0 3.32-1.6 3.32-3.552s-1.464-3.552-3.32-3.552z"
  fill="#000000" data-name="layer1"></path>
  <path d="M53.81 0H10.19C6.51 0 3.517 2.944 3.517 6.592v43.264c0 3.648 2.994 6.592 6.673 6.592h36.915l-1.726-5.92 4.167 3.808 3.939 3.584L60.484 64V6.592C60.484 2.944 57.489 0 53.81 0zM41.245 41.792s-1.172-1.376-2.148-2.592c4.264-1.184 5.892-3.808 5.892-3.808a18.751 18.751 0 0 1-3.744 1.888c-1.628.672-3.19 1.12-4.72 1.376-3.125.576-5.99.416-8.431-.032a27.682 27.682 0 0 1-4.785-1.376 19.232 19.232 0 0 1-2.377-1.088c-.097-.064-.195-.096-.293-.16-.065-.032-.097-.064-.13-.096-.586-.32-.911-.544-.911-.544s1.562 2.56 5.696 3.776a205.395 205.395 0 0 1-2.18 2.656c-7.195-.224-9.93-4.864-9.93-4.864 0-10.304 4.688-18.656 4.688-18.656 4.688-3.456 9.148-3.36 9.148-3.36l.325.384c-5.86 1.664-8.561 4.192-8.561 4.192s.716-.384 1.92-.928c3.483-1.504 6.25-1.92 7.39-2.016.195-.032.358-.064.553-.064a28.015 28.015 0 0 1 6.576-.064 26.863 26.863 0 0 1 9.798 3.072s-2.572-2.4-8.105-4.064l.455-.512s4.46-.096 9.148 3.36c0 0 4.687 8.352 4.687 18.656 0 0-2.767 4.64-9.961 4.864z"
  fill="#000000" data-name="layer1"></path>
</svg>