<svg viewBox="0 0 64 64" fill="none" xmlns="http://www.w3.org/2000/svg"
aria-labelledby="title" aria-describedby="desc" role="img" xmlns:xlink="http://www.w3.org/1999/xlink"
width="64" height="64">
  <path d="M32 0C14.329 0 0 14.688 0 32.81c0 14.497 9.17 26.792 21.884 31.133 1.6.303 2.184-.71 2.184-1.582 0-.779-.025-2.844-.043-5.582-8.9 1.984-10.777-4.395-10.777-4.395-1.458-3.794-3.556-4.8-3.556-4.8-2.904-2.034.22-1.995.22-1.995 3.212.232 4.9 3.382 4.9 3.382 2.856 5.013 7.492 3.566 9.316 2.723.292-2.119 1.116-3.562 2.03-4.384-7.104-.828-14.578-3.644-14.578-16.213 0-3.584 1.248-6.514 3.296-8.807-.33-.828-1.429-4.167.317-8.683 0 0 2.684-.881 8.796 3.364A29.944 29.944 0 0 1 32 15.869c2.708.004 5.403.374 8.01 1.102 6.113-4.245 8.794-3.364 8.794-3.364 1.745 4.516.647 7.855.32 8.683 2.051 2.293 3.288 5.227 3.288 8.803 0 12.605-7.484 15.382-14.613 16.192 1.149 1.014 2.173 3.016 2.173 6.077 0 4.384-.036 7.922-.036 9 0 .877.576 1.898 2.197 1.578C54.841 59.59 64 47.3 64 32.81 64 14.689 49.671 0 32 0z"
  fill="#000000" data-name="layer1"></path>
</svg>