<svg viewBox="0 0 64 64" fill="none" xmlns="http://www.w3.org/2000/svg"
aria-labelledby="title" aria-describedby="desc" role="img" xmlns:xlink="http://www.w3.org/1999/xlink"
width="64" height="64">
  <path d="M7.89 16.056c-4.36 0-7.89-3.22-7.89-7.195 0-3.98 3.53-7.203 7.89-7.203 4.354 0 7.884 3.224 7.884 7.203 0 3.976-3.53 7.195-7.885 7.195zM1.806 62.342V21.538h14.148v40.804H1.807zm34.005-22.694V61.82H21.687V21.017h14.125v5.493c3.717-4.799 6.946-6.78 12.802-6.78C54.474 19.73 64 22.51 64 38.626V61.82H49.915V39.536c0-4.568-1.301-9.144-6.595-9.144s-7.508 4.576-7.508 9.256z"
  fill="#000000" data-name="layer1"></path>
</svg>