<svg viewBox="0 0 64 64" fill="none" xmlns="http://www.w3.org/2000/svg"
aria-labelledby="title" aria-describedby="desc" role="img" xmlns:xlink="http://www.w3.org/1999/xlink"
width="64" height="64">
  <path d="M62.178 7.154c-1.86 1.191-6.129 2.922-8.234 2.922v.004A13.171 13.171 0 0 0 44.4 6c-7.29 0-13.203 5.912-13.203 13.2 0 1.013.117 2 .334 2.948h-.002c-9.89-.26-20.707-5.217-27.218-13.701-4.004 6.93-.54 14.637 4.004 17.445-1.555.117-4.418-.18-5.766-1.494-.09 4.6 2.122 10.694 10.186 12.904-1.553.836-4.303.596-5.498.419.42 3.882 5.857 8.958 11.802 8.958C16.92 49.13 8.947 53.576 0 52.162 6.076 55.859 13.158 58 20.654 58c21.302 0 37.844-17.264 36.954-38.56-.004-.024-.004-.048-.006-.073.002-.055.006-.11.006-.167 0-.066-.006-.128-.008-.192 1.94-1.327 4.541-3.672 6.4-6.76-1.078.594-4.312 1.783-7.322 2.078 1.932-1.043 4.793-4.457 5.5-7.172z"
  fill="#000000" data-name="layer1"></path>
</svg>